<svg xmlns="http://www.w3.org/2000/svg" viewBox="0 0 722.79 164.94"><defs><style>.cls-1{fill:#a31f34;}</style></defs><title>cpi_logo</title><g id="Layer_2" data-name="Layer 2"><g id="Layer_1-2" data-name="Layer 1"><path class="cls-1" d="M407.16,113.89a13.24,13.24,0,0,1-2,2,13,13,0,0,1-2.56,1.67,14.2,14.2,0,0,1-3.14,1.12,16.23,16.23,0,0,1-3.74.41,14.61,14.61,0,0,1-5.25-.9,11.57,11.57,0,0,1-4.05-2.52,11.33,11.33,0,0,1-2.63-3.91,13.23,13.23,0,0,1-.93-5,18.62,18.62,0,0,1,1.3-7,17.74,17.74,0,0,1,3.6-5.68,17.05,17.05,0,0,1,5.39-3.82,15.94,15.94,0,0,1,6.68-1.41,14.74,14.74,0,0,1,5.84,1.22,10.35,10.35,0,0,1,2.3,1.39,8,8,0,0,1,1.67,1.79l-3.95,3a6.83,6.83,0,0,0-.86-1,5.65,5.65,0,0,0-1.3-1,7.76,7.76,0,0,0-1.73-.73,7.46,7.46,0,0,0-2.13-.29,10.14,10.14,0,0,0-4.7,1.1,11.77,11.77,0,0,0-3.67,2.93,14.2,14.2,0,0,0-2.38,4.15,13.71,13.71,0,0,0-.85,4.77,9.93,9.93,0,0,0,.55,3.35,7.86,7.86,0,0,0,1.58,2.73,7.68,7.68,0,0,0,2.59,1.85,8.6,8.6,0,0,0,3.54.69A9.47,9.47,0,0,0,404,111Z"/><path class="cls-1" d="M419.09,118.93a11.21,11.21,0,0,1-3.77-.61,8.65,8.65,0,0,1-3-1.75,8,8,0,0,1-2.68-6.14,12.61,12.61,0,0,1,.83-4.58,11.87,11.87,0,0,1,2.38-3.84,11.41,11.41,0,0,1,3.72-2.67,11.65,11.65,0,0,1,4.87-1,11.51,11.51,0,0,1,3.8.61,9,9,0,0,1,3,1.73,8.14,8.14,0,0,1,2,2.69,8.27,8.27,0,0,1,.71,3.44,13.11,13.11,0,0,1-.83,4.64,11.88,11.88,0,0,1-2.39,3.86A11.1,11.1,0,0,1,424,118,11.88,11.88,0,0,1,419.09,118.93Zm7-11.62a5.07,5.07,0,0,0-1.35-3.63,4.77,4.77,0,0,0-3.66-1.43,6.09,6.09,0,0,0-2.79.63,6.57,6.57,0,0,0-2.11,1.7,7.59,7.59,0,0,0-1.36,2.45,8.64,8.64,0,0,0-.49,2.94,5.16,5.16,0,0,0,1.3,3.63,4.72,4.72,0,0,0,3.66,1.43,6.47,6.47,0,0,0,2.81-.61,6.39,6.39,0,0,0,2.14-1.68,8.09,8.09,0,0,0,1.36-2.47A9.1,9.1,0,0,0,426.13,107.31Z"/><path class="cls-1" d="M437.42,101.07c.12-.81.21-1.55.26-2.2h4.48c0,.3-.08.77-.16,1.43s-.15,1.19-.21,1.62h.09a9.6,9.6,0,0,1,2.34-2.48,5.92,5.92,0,0,1,3.68-1.1,6.56,6.56,0,0,1,3.93,1.08,4.92,4.92,0,0,1,1.93,2.75,9.77,9.77,0,0,1,3-2.81,7.55,7.55,0,0,1,3.95-1,8,8,0,0,1,2.93.49,6.06,6.06,0,0,1,2,1.3,5.12,5.12,0,0,1,1.2,1.94,7,7,0,0,1,.39,2.34,10.05,10.05,0,0,1-.16,1.83l-2.16,12.17h-4.76L462,107.66c.05-.32.1-.65.14-1a8.18,8.18,0,0,0,.06-1,4.78,4.78,0,0,0-.16-1.26,2.72,2.72,0,0,0-.53-1.06,2.65,2.65,0,0,0-1-.73,3.78,3.78,0,0,0-1.56-.29,4.16,4.16,0,0,0-2,.49,5.77,5.77,0,0,0-1.56,1.26,6.45,6.45,0,0,0-1.08,1.73,8.83,8.83,0,0,0-.57,1.89l-1.87,10.67H447l2.08-11.81a5.66,5.66,0,0,0,.12-1.09,3.37,3.37,0,0,0-.73-2.26,2.79,2.79,0,0,0-2.28-.88,4.13,4.13,0,0,0-2,.47,5.29,5.29,0,0,0-1.53,1.2,6.51,6.51,0,0,0-1.08,1.69,8.23,8.23,0,0,0-.59,1.93l-1.91,10.75h-4.76l2.68-15.35C437.18,102.55,437.3,101.88,437.42,101.07Z"/><path class="cls-1" d="M474.21,101.07c.12-.81.21-1.55.26-2.2H479c0,.3-.08.77-.16,1.43s-.15,1.19-.21,1.62h.08A10,10,0,0,1,481,99.44a6,6,0,0,1,3.69-1.1,6.52,6.52,0,0,1,3.92,1.08,4.93,4.93,0,0,1,1.94,2.75,9.77,9.77,0,0,1,3-2.81,7.53,7.53,0,0,1,3.94-1,8,8,0,0,1,2.93.49,6,6,0,0,1,2,1.3,5.12,5.12,0,0,1,1.2,1.94,7,7,0,0,1,.39,2.34,9.19,9.19,0,0,1-.17,1.83l-2.15,12.17h-4.76l1.87-10.75c.05-.32.1-.65.14-1a8.18,8.18,0,0,0,.06-1,4.78,4.78,0,0,0-.16-1.26,2.86,2.86,0,0,0-.53-1.06,2.73,2.73,0,0,0-1-.73,3.78,3.78,0,0,0-1.56-.29,4.16,4.16,0,0,0-2,.49,5.81,5.81,0,0,0-1.57,1.26,6.68,6.68,0,0,0-1.07,1.73,7.82,7.82,0,0,0-.57,1.89l-1.88,10.67h-4.8l2.08-11.81a5.66,5.66,0,0,0,.12-1.09,3.37,3.37,0,0,0-.73-2.26,2.79,2.79,0,0,0-2.28-.88,4.17,4.17,0,0,0-2,.47,5.38,5.38,0,0,0-1.52,1.2,6.26,6.26,0,0,0-1.08,1.69,8.23,8.23,0,0,0-.59,1.93l-1.91,10.75h-4.76l2.68-15.35C474,102.55,474.09,101.88,474.21,101.07Z"/><path class="cls-1" d="M521.27,115.35a8.5,8.5,0,0,1-2.58,2.59,6.92,6.92,0,0,1-3.77,1,7.62,7.62,0,0,1-2.83-.48,5.75,5.75,0,0,1-2-1.31,5.08,5.08,0,0,1-1.18-1.93,7,7,0,0,1-.39-2.34,9.19,9.19,0,0,1,.17-1.83l2.15-12.17h4.76l-1.87,10.75c0,.32-.1.65-.14,1a8.06,8.06,0,0,0-.06,1,4,4,0,0,0,.69,2.3,2.87,2.87,0,0,0,2.52,1,4.62,4.62,0,0,0,2.06-.45,5.21,5.21,0,0,0,1.59-1.2,7,7,0,0,0,1.09-1.69,7.14,7.14,0,0,0,.59-1.91L524,98.87h4.76l-2.69,15.34c-.11.52-.22,1.18-.34,2s-.21,1.54-.27,2.2H521c0-.3.08-.77.16-1.41s.15-1.18.2-1.65Z"/><path class="cls-1" d="M539.62,101.92a8.39,8.39,0,0,1,2.59-2.58,6.89,6.89,0,0,1,3.76-1,7.58,7.58,0,0,1,2.83.49,5.78,5.78,0,0,1,2,1.3,5.07,5.07,0,0,1,1.18,1.94,7,7,0,0,1,.39,2.34,9.23,9.23,0,0,1-.16,1.83L550,118.41h-4.76l1.87-10.75c.06-.32.1-.65.14-1a6.55,6.55,0,0,0,.07-1,3.87,3.87,0,0,0-.7-2.3,2.87,2.87,0,0,0-2.52-1,4.51,4.51,0,0,0-2.07.45,5.25,5.25,0,0,0-1.57,1.2,6.83,6.83,0,0,0-1.1,1.69,7.81,7.81,0,0,0-.59,1.91l-1.91,10.75h-4.76l2.68-15.35c.11-.51.23-1.18.35-2s.21-1.55.26-2.2h4.48c0,.3-.08.77-.16,1.41s-.15,1.18-.21,1.64Z"/><path class="cls-1" d="M556.31,118.41l3.42-19.54h4.8l-3.46,19.54Zm9.81-26.25a2.93,2.93,0,0,1-.84,2.07,2.68,2.68,0,0,1-2,.9,3,3,0,0,1-2-.74,2.6,2.6,0,0,1-.83-2.07,2.82,2.82,0,0,1,.89-2.14,3,3,0,0,1,2.08-.83,2.75,2.75,0,0,1,2,.75A2.7,2.7,0,0,1,566.12,92.16Z"/><path class="cls-1" d="M583.53,104.41a4.29,4.29,0,0,0-1.62-1.53,4.78,4.78,0,0,0-2.4-.63,6.33,6.33,0,0,0-2.79.61,6.62,6.62,0,0,0-2.2,1.68,8.26,8.26,0,0,0-1.45,2.44,8.18,8.18,0,0,0-.52,2.9,6.5,6.5,0,0,0,.28,1.94,4.42,4.42,0,0,0,2.44,2.78,5.3,5.3,0,0,0,2.24.43,6,6,0,0,0,3-.63,9.37,9.37,0,0,0,2.06-1.57l2.72,2.76a12.32,12.32,0,0,1-3.5,2.44,10.66,10.66,0,0,1-4.52.9,11.37,11.37,0,0,1-3.84-.61,8.58,8.58,0,0,1-3-1.73,7.45,7.45,0,0,1-1.91-2.66,8.54,8.54,0,0,1-.67-3.46,12.5,12.5,0,0,1,.85-4.56,12.28,12.28,0,0,1,2.4-3.88,11.28,11.28,0,0,1,3.76-2.69,11.94,11.94,0,0,1,4.91-1,11.09,11.09,0,0,1,4.17.8,6.11,6.11,0,0,1,3,2.5Z"/><path class="cls-1" d="M601.68,106a6,6,0,0,0,.1-.75,4.35,4.35,0,0,0,0-.51,2.24,2.24,0,0,0-.91-2,4.88,4.88,0,0,0-2.71-.61,8.61,8.61,0,0,0-2.95.55,10.6,10.6,0,0,0-2.7,1.4l-1.83-3.21A13.58,13.58,0,0,1,594.5,99a14.71,14.71,0,0,1,4.37-.67,12.14,12.14,0,0,1,2.75.31,7.45,7.45,0,0,1,2.44,1,5.29,5.29,0,0,1,1.73,1.82,5.37,5.37,0,0,1,.66,2.78c0,.25,0,.55-.05.9a5.86,5.86,0,0,1-.12.93L604.86,114c-.14.76-.25,1.55-.35,2.36a19.19,19.19,0,0,0-.14,2H600a11.26,11.26,0,0,1,.25-2.32h-.08a7.85,7.85,0,0,1-6.35,2.72,9.92,9.92,0,0,1-2.12-.24,5.78,5.78,0,0,1-2-.84,4.56,4.56,0,0,1-1.47-1.58,5,5,0,0,1-.57-2.51,5.7,5.7,0,0,1,1.29-3.88,8.45,8.45,0,0,1,3.31-2.32,16.88,16.88,0,0,1,4.54-1.12A43.32,43.32,0,0,1,601.68,106Zm-1,3.42c-.93,0-1.88,0-2.87.1a13.16,13.16,0,0,0-2.73.47,5.6,5.6,0,0,0-2,1,2.52,2.52,0,0,0-.52,3,2,2,0,0,0,.71.75,3.08,3.08,0,0,0,1,.41,5.69,5.69,0,0,0,1.18.12,5.78,5.78,0,0,0,2.05-.36,5.43,5.43,0,0,0,2.85-2.47,6.32,6.32,0,0,0,.67-1.81l.24-1.22Z"/><path class="cls-1" d="M609.86,102.78l.69-3.91h3.38l1-5.7h4.72l-1,5.7h4.4l-.69,3.91H618l-1.71,9.14a5.8,5.8,0,0,0-.12,1.13,1.59,1.59,0,0,0,.63,1.45,3.08,3.08,0,0,0,1.69.41,7.61,7.61,0,0,0,1-.07q.46-.07.87-.18l-.28,3.62a7,7,0,0,1-1.45.39,9.54,9.54,0,0,1-1.52.14c-2.07,0-3.53-.41-4.4-1.24a4.27,4.27,0,0,1-1.3-3.26c0-.38,0-.79.06-1.24a10.54,10.54,0,0,1,.18-1.24l1.67-9Z"/><path class="cls-1" d="M624.19,118.41l3.42-19.54h4.8L629,118.41ZM634,92.16a3,3,0,0,1-.83,2.07,2.7,2.7,0,0,1-2.06.9,3,3,0,0,1-2-.74,2.57,2.57,0,0,1-.83-2.07,2.79,2.79,0,0,1,.89-2.14,3,3,0,0,1,2.08-.83,2.77,2.77,0,0,1,2,.75A2.7,2.7,0,0,1,634,92.16Z"/><path class="cls-1" d="M645.14,118.93a11.15,11.15,0,0,1-3.76-.61,8.65,8.65,0,0,1-3-1.75,8,8,0,0,1-2.69-6.14,12.61,12.61,0,0,1,.84-4.58,11.7,11.7,0,0,1,2.38-3.84,11.41,11.41,0,0,1,3.72-2.67,12.26,12.26,0,0,1,8.67-.39,9.1,9.1,0,0,1,3,1.73,8,8,0,0,1,2,2.69,8.12,8.12,0,0,1,.72,3.44,12.9,12.9,0,0,1-.84,4.64,11.68,11.68,0,0,1-2.38,3.86A11.2,11.2,0,0,1,650,118,11.93,11.93,0,0,1,645.14,118.93Zm7-11.62a5.06,5.06,0,0,0-1.34-3.63,4.77,4.77,0,0,0-3.66-1.43,6.09,6.09,0,0,0-2.79.63,6.61,6.61,0,0,0-2.12,1.7,8,8,0,0,0-1.36,2.45,8.89,8.89,0,0,0-.49,2.94,5.21,5.21,0,0,0,1.3,3.63,4.72,4.72,0,0,0,3.67,1.43,6.5,6.5,0,0,0,2.81-.61,6.26,6.26,0,0,0,2.13-1.68,8.11,8.11,0,0,0,1.37-2.47A9.09,9.09,0,0,0,652.18,107.31Z"/><path class="cls-1" d="M667.93,101.92a8.39,8.39,0,0,1,2.59-2.58,6.89,6.89,0,0,1,3.76-1,7.58,7.58,0,0,1,2.83.49,5.88,5.88,0,0,1,2,1.3,5.07,5.07,0,0,1,1.18,1.94,7,7,0,0,1,.39,2.34,9.23,9.23,0,0,1-.16,1.83l-2.16,12.17h-4.76l1.87-10.75c.06-.32.1-.65.14-1a8.22,8.22,0,0,0,.07-1,3.87,3.87,0,0,0-.7-2.3,2.87,2.87,0,0,0-2.52-1,4.58,4.58,0,0,0-2.08.45,5.34,5.34,0,0,0-1.56,1.2,6.56,6.56,0,0,0-1.1,1.69,7.81,7.81,0,0,0-.59,1.91l-1.91,10.75h-4.76l2.68-15.35c.11-.51.22-1.18.35-2s.21-1.55.26-2.2h4.48c0,.3-.08.77-.16,1.41s-.15,1.18-.21,1.64Z"/><path class="cls-1" d="M686.49,112.79a4.16,4.16,0,0,0,1.81,1.81,5.64,5.64,0,0,0,2.66.63,4.84,4.84,0,0,0,2.67-.65,2,2,0,0,0,1-1.79,1.74,1.74,0,0,0-.79-1.57,12,12,0,0,0-2.55-1.08,22.29,22.29,0,0,1-2.42-.91,6.5,6.5,0,0,1-1.73-1.1,4.14,4.14,0,0,1-1-1.44,4.92,4.92,0,0,1-.34-1.92,5.23,5.23,0,0,1,.65-2.6,6.32,6.32,0,0,1,1.79-2,8.5,8.5,0,0,1,2.68-1.32,11.75,11.75,0,0,1,3.38-.47,9.87,9.87,0,0,1,4.13.84,6.37,6.37,0,0,1,2.91,2.54l-3.7,2.2a4.48,4.48,0,0,0-1.38-1.36,4.26,4.26,0,0,0-2.32-.55,6.78,6.78,0,0,0-1.25.12,4.1,4.1,0,0,0-1.12.38,2.37,2.37,0,0,0-.79.72,1.92,1.92,0,0,0-.3,1.1,1.48,1.48,0,0,0,.79,1.38,11,11,0,0,0,2.34.89,10.86,10.86,0,0,1,4.23,2.1,4.73,4.73,0,0,1,1.51,3.76,5.78,5.78,0,0,1-.69,2.87,6.53,6.53,0,0,1-1.85,2.1,8.17,8.17,0,0,1-2.69,1.28,11.79,11.79,0,0,1-3.24.43,10.17,10.17,0,0,1-5.1-1.12,8.19,8.19,0,0,1-3-2.79Z"/><path class="cls-1" d="M394.51,151.39l3.5-5h5.77l-6.42,8.18,6,7H397.4L394.55,158a14.62,14.62,0,0,1-4.6,3.28,11.93,11.93,0,0,1-4.56.91,12.6,12.6,0,0,1-3.58-.48,8.09,8.09,0,0,1-2.81-1.47,6.83,6.83,0,0,1-1.85-2.42,8.55,8.55,0,0,1-.06-6.49,8.82,8.82,0,0,1,1.65-2.54,10.67,10.67,0,0,1,2.46-2,20.34,20.34,0,0,1,3-1.44,11.55,11.55,0,0,1-1.32-2.57,8.4,8.4,0,0,1-.51-2.93,8,8,0,0,1,.63-3.23,7.38,7.38,0,0,1,1.71-2.47,7.57,7.57,0,0,1,2.54-1.56,8.79,8.79,0,0,1,3.14-.55,9.57,9.57,0,0,1,3,.45,6.93,6.93,0,0,1,2.38,1.3,6.17,6.17,0,0,1,2.18,4.88,6.26,6.26,0,0,1-2,4.64,17.48,17.48,0,0,1-5.29,3.38Zm-7.9-2.81a14.47,14.47,0,0,0-2,.86,7,7,0,0,0-1.65,1.13,5.06,5.06,0,0,0-1.1,1.53,4.63,4.63,0,0,0-.41,2,3.7,3.7,0,0,0,.35,1.59,3.61,3.61,0,0,0,.94,1.24,4.28,4.28,0,0,0,1.38.8,5,5,0,0,0,1.69.28,6,6,0,0,0,3.19-.85,10.56,10.56,0,0,0,2.67-2.4Zm6.8-9.6a3,3,0,0,0-.77-2.16,2.86,2.86,0,0,0-2.16-.81,3.46,3.46,0,0,0-2.63,1.05,3.74,3.74,0,0,0-1,2.65,5.85,5.85,0,0,0,.48,2.22,7.07,7.07,0,0,0,1.14,1.89,12.93,12.93,0,0,0,1.92-.88,8.08,8.08,0,0,0,1.56-1.12A4.85,4.85,0,0,0,393,140.5,3.1,3.1,0,0,0,393.41,139Z"/><path class="cls-1" d="M427.84,132.83q4.76,0,7.28,2a6.68,6.68,0,0,1,2.52,5.57,9.29,9.29,0,0,1-.87,4.19,7.69,7.69,0,0,1-2.48,2.89,11,11,0,0,1-3.85,1.67,21.51,21.51,0,0,1-4.92.53h-4.36l-2.11,12h-5l5.09-28.81Zm-2.16,12.62a16.24,16.24,0,0,0,2.79-.23,6.44,6.44,0,0,0,2.17-.75,3.89,3.89,0,0,0,1.41-1.38,4.16,4.16,0,0,0,.51-2.16,4,4,0,0,0-.41-1.89,2.94,2.94,0,0,0-1.14-1.18,5.16,5.16,0,0,0-1.75-.61,12.82,12.82,0,0,0-2.24-.19h-3.66l-1.51,8.39Z"/><path class="cls-1" d="M445.62,162.17a11.11,11.11,0,0,1-3.76-.61,8.62,8.62,0,0,1-3-1.75,8.17,8.17,0,0,1-2-2.68,8.26,8.26,0,0,1-.71-3.46,12.82,12.82,0,0,1,.83-4.58,12,12,0,0,1,2.38-3.85,11.58,11.58,0,0,1,3.73-2.66,11.45,11.45,0,0,1,4.86-1,11.26,11.26,0,0,1,3.8.61,8.88,8.88,0,0,1,3,1.73,7.88,7.88,0,0,1,2,2.69,8.27,8.27,0,0,1,.71,3.44,13.05,13.05,0,0,1-.83,4.63,11.79,11.79,0,0,1-2.38,3.87,11.28,11.28,0,0,1-3.75,2.65A11.88,11.88,0,0,1,445.62,162.17Zm7-11.62a5.1,5.1,0,0,0-1.34-3.63,4.78,4.78,0,0,0-3.67-1.43,6,6,0,0,0-2.78.63,6.61,6.61,0,0,0-2.12,1.69,8,8,0,0,0-1.36,2.45,8.72,8.72,0,0,0-.49,2.94,5.21,5.21,0,0,0,1.3,3.64,4.72,4.72,0,0,0,3.66,1.43,6.3,6.3,0,0,0,2.81-.62,6.37,6.37,0,0,0,2.14-1.67,7.89,7.89,0,0,0,1.36-2.47A8.88,8.88,0,0,0,452.66,150.55Z"/><path class="cls-1" d="M482.61,161.64h-4.88L476,147.85h-.08l-7.29,13.79h-4.88L461,142.11h5l1.34,14h.08l7-14h5l1.58,14h.09l7.08-14h5Z"/><path class="cls-1" d="M497.71,153.38a2.15,2.15,0,0,0,0,.45,4.05,4.05,0,0,0,1.46,3.19,5.23,5.23,0,0,0,1.63.94,5.81,5.81,0,0,0,2,.35,6.72,6.72,0,0,0,3.2-.7,8.44,8.44,0,0,0,2.38-1.87l2.73,2.57a11.61,11.61,0,0,1-8.83,3.9,10.83,10.83,0,0,1-3.67-.59,8.41,8.41,0,0,1-2.89-1.69,7.65,7.65,0,0,1-1.91-2.7,9.25,9.25,0,0,1-.69-3.68,12.71,12.71,0,0,1,.85-4.7,11.78,11.78,0,0,1,2.39-3.81A10.82,10.82,0,0,1,500,142.5a11.27,11.27,0,0,1,4.57-.92,10.19,10.19,0,0,1,3.24.49,7.13,7.13,0,0,1,2.58,1.46,6.53,6.53,0,0,1,1.71,2.45,8.72,8.72,0,0,1,.61,3.41c0,.44,0,1-.12,1.82a17.23,17.23,0,0,1-.36,2.17ZM508.29,150c0-.19,0-.36.06-.52s0-.33,0-.49a3.61,3.61,0,0,0-1.12-2.69,4.33,4.33,0,0,0-3.15-1.1,5.59,5.59,0,0,0-2.28.45,6.24,6.24,0,0,0-1.77,1.16,6.6,6.6,0,0,0-1.24,1.57,5.33,5.33,0,0,0-.65,1.62Z"/><path class="cls-1" d="M523.43,145.37a9.39,9.39,0,0,1,2.4-2.75,5.39,5.39,0,0,1,3.33-1l.62,0a3.06,3.06,0,0,1,.57.1l-.66,4.44a4.8,4.8,0,0,0-.79-.16,5.12,5.12,0,0,0-.67,0,5.41,5.41,0,0,0-2.73.61,5.7,5.7,0,0,0-1.71,1.46,5.83,5.83,0,0,0-.93,1.75,9.48,9.48,0,0,0-.37,1.43l-1.83,10.45H515.9l2.73-15.34c.1-.51.22-1.18.34-2s.21-1.55.27-2.2h4.47a5.67,5.67,0,0,1,0,.61c0,.27-.06.57-.1.9l-.12.95c0,.31-.08.58-.1.8Z"/><path class="cls-1" d="M539.74,161.64l5.09-28.81h5l-5.09,28.81Z"/><path class="cls-1" d="M559.12,145.16a8.15,8.15,0,0,1,2.58-2.58,6.81,6.81,0,0,1,3.76-1,7.38,7.38,0,0,1,2.83.49,5.64,5.64,0,0,1,2,1.3,5.18,5.18,0,0,1,1.19,1.93,7.35,7.35,0,0,1,.38,2.34,9.41,9.41,0,0,1-.16,1.84l-2.16,12.16h-4.76l1.87-10.74c.06-.33.11-.65.15-1a7.89,7.89,0,0,0,.06-1,3.93,3.93,0,0,0-.69-2.3,2.88,2.88,0,0,0-2.53-1,4.54,4.54,0,0,0-2.07.45,5.25,5.25,0,0,0-1.57,1.2,6.65,6.65,0,0,0-1.1,1.69,7.81,7.81,0,0,0-.59,1.91l-1.91,10.74h-4.76l2.68-15.34c.11-.51.23-1.18.35-2s.21-1.55.26-2.2h4.48c0,.3-.08.77-.16,1.4s-.15,1.19-.21,1.65Z"/><path class="cls-1" d="M595.94,130.92h4.8l-5.45,30.72h-4.51l.48-3.09h-.12a8.16,8.16,0,0,1-3,2.65,8.76,8.76,0,0,1-4,.93,9,9,0,0,1-3.4-.61,7.41,7.41,0,0,1-2.6-1.73,7.66,7.66,0,0,1-1.67-2.66,9.59,9.59,0,0,1-.59-3.42,13.75,13.75,0,0,1,.79-4.72,12.1,12.1,0,0,1,2.22-3.85,10.32,10.32,0,0,1,3.4-2.6,9.78,9.78,0,0,1,4.33-1,8.38,8.38,0,0,1,4.34,1,6.41,6.41,0,0,1,2.5,2.71h.08Zm-15.22,22.23a5.4,5.4,0,0,0,1.25,3.62,4.41,4.41,0,0,0,3.56,1.46,6.19,6.19,0,0,0,2.68-.61,6.72,6.72,0,0,0,2.18-1.67,8,8,0,0,0,1.44-2.45,8.07,8.07,0,0,0,.53-2.94,5.1,5.1,0,0,0-1.34-3.65,4.74,4.74,0,0,0-3.62-1.42,6.1,6.1,0,0,0-2.75.61,6.44,6.44,0,0,0-2.12,1.64,7.35,7.35,0,0,0-1.34,2.43A9.44,9.44,0,0,0,580.72,153.15Z"/><path class="cls-1" d="M614.91,158.59a8.42,8.42,0,0,1-2.59,2.59,6.89,6.89,0,0,1-3.76,1,7.38,7.38,0,0,1-2.83-.49,5.59,5.59,0,0,1-2-1.3,5,5,0,0,1-1.18-1.93,7.09,7.09,0,0,1-.39-2.34,9.23,9.23,0,0,1,.16-1.83l2.16-12.17h4.76l-1.87,10.74c-.06.33-.1.65-.14,1a8.07,8.07,0,0,0-.07,1,3.89,3.89,0,0,0,.7,2.3,2.87,2.87,0,0,0,2.52,1,4.62,4.62,0,0,0,2.06-.45,5,5,0,0,0,1.58-1.2,6.77,6.77,0,0,0,1.1-1.68,8,8,0,0,0,.59-1.92l1.91-10.74h4.76l-2.68,15.34c-.11.52-.22,1.18-.35,2s-.21,1.54-.26,2.19h-4.48c0-.29.08-.76.16-1.4s.15-1.19.21-1.65Z"/><path class="cls-1" d="M627.44,156a4.22,4.22,0,0,0,1.81,1.81,5.66,5.66,0,0,0,2.67.63,4.82,4.82,0,0,0,2.66-.65,2,2,0,0,0,1-1.79,1.73,1.73,0,0,0-.79-1.57,11.73,11.73,0,0,0-2.55-1.08,24.6,24.6,0,0,1-2.42-.91,6.76,6.76,0,0,1-1.73-1.1,4.09,4.09,0,0,1-1-1.45,4.86,4.86,0,0,1-.34-1.91,5.31,5.31,0,0,1,.65-2.6,6.32,6.32,0,0,1,1.79-2,8.55,8.55,0,0,1,2.69-1.32,11.63,11.63,0,0,1,3.37-.47,10,10,0,0,1,4.13.83,6.45,6.45,0,0,1,2.91,2.55l-3.7,2.2a4.51,4.51,0,0,0-1.38-1.37,4.33,4.33,0,0,0-2.32-.55,5.87,5.87,0,0,0-1.24.13,4,4,0,0,0-1.12.38,2.39,2.39,0,0,0-.8.71,2,2,0,0,0-.3,1.1,1.48,1.48,0,0,0,.79,1.39,12.19,12.19,0,0,0,2.34.89,10.86,10.86,0,0,1,4.23,2.1,4.71,4.71,0,0,1,1.51,3.76,5.8,5.8,0,0,1-.69,2.87,6.53,6.53,0,0,1-1.85,2.1A8.37,8.37,0,0,1,635,162a12.13,12.13,0,0,1-3.24.43,10.2,10.2,0,0,1-5.1-1.12,8.19,8.19,0,0,1-3-2.79Z"/><path class="cls-1" d="M643.76,146l.69-3.91h3.38l1-5.7h4.72l-1,5.7h4.39l-.69,3.91h-4.31l-1.71,9.13a5.88,5.88,0,0,0-.12,1.13,1.6,1.6,0,0,0,.63,1.46,3.09,3.09,0,0,0,1.69.4,6,6,0,0,0,1-.07,6.87,6.87,0,0,0,.88-.17l-.29,3.62a7.62,7.62,0,0,1-1.44.39,9.76,9.76,0,0,1-1.53.14c-2.06,0-3.53-.41-4.39-1.24a4.29,4.29,0,0,1-1.31-3.27,11,11,0,0,1,.07-1.23,10.54,10.54,0,0,1,.18-1.24l1.67-9Z"/><path class="cls-1" d="M665.29,145.37a9.11,9.11,0,0,1,2.4-2.75,5.4,5.4,0,0,1,3.34-1l.6,0a2.79,2.79,0,0,1,.57.1l-.65,4.44a4.8,4.8,0,0,0-.79-.16,5.22,5.22,0,0,0-.67,0,5.41,5.41,0,0,0-2.73.61,5.7,5.7,0,0,0-1.71,1.46,5.83,5.83,0,0,0-.93,1.75,9.48,9.48,0,0,0-.37,1.43l-1.83,10.45h-4.76l2.72-15.34c.11-.51.23-1.18.35-2s.21-1.55.26-2.2h4.48a5.67,5.67,0,0,1,0,.61c0,.27-.06.57-.1.9l-.12.95c0,.31-.08.58-.1.8Z"/><path class="cls-1" d="M671.88,161.64l3.42-19.53h4.8l-3.46,19.53Zm9.81-26.25a3,3,0,0,1-.84,2.08,2.68,2.68,0,0,1-2.05.9,3,3,0,0,1-2-.74,2.63,2.63,0,0,1-.83-2.07,2.82,2.82,0,0,1,.89-2.14,3,3,0,0,1,2.08-.83,2.75,2.75,0,0,1,2,.75A2.7,2.7,0,0,1,681.69,135.39Z"/><path class="cls-1" d="M687.79,153.38a2.15,2.15,0,0,0,0,.45,4.14,4.14,0,0,0,1.46,3.19,5.35,5.35,0,0,0,1.63.94,5.91,5.91,0,0,0,2,.35,6.71,6.71,0,0,0,3.19-.7,8.31,8.31,0,0,0,2.38-1.87l2.73,2.57a11.61,11.61,0,0,1-8.83,3.9,10.73,10.73,0,0,1-3.66-.59,8.23,8.23,0,0,1-2.89-1.69,7.67,7.67,0,0,1-1.92-2.7,9.25,9.25,0,0,1-.69-3.68,12.71,12.71,0,0,1,.86-4.7,11.75,11.75,0,0,1,2.38-3.81,10.82,10.82,0,0,1,3.62-2.54,11.32,11.32,0,0,1,4.58-.92,10.17,10.17,0,0,1,3.23.49,7.26,7.26,0,0,1,2.59,1.46,6.76,6.76,0,0,1,1.71,2.45,8.91,8.91,0,0,1,.61,3.41,16.6,16.6,0,0,1-.13,1.82,17.23,17.23,0,0,1-.36,2.17ZM698.37,150c0-.19,0-.36.06-.52a4.1,4.1,0,0,0,0-.49,3.61,3.61,0,0,0-1.12-2.69,4.31,4.31,0,0,0-3.15-1.1,5.59,5.59,0,0,0-2.28.45,6.24,6.24,0,0,0-1.77,1.16,6.6,6.6,0,0,0-1.24,1.57,5.6,5.6,0,0,0-.65,1.62Z"/><path class="cls-1" d="M708,156a4.22,4.22,0,0,0,1.81,1.81,5.68,5.68,0,0,0,2.67.63,4.88,4.88,0,0,0,2.67-.65,2,2,0,0,0,1-1.79,1.73,1.73,0,0,0-.79-1.57,11.83,11.83,0,0,0-2.54-1.08,23.67,23.67,0,0,1-2.42-.91,6.59,6.59,0,0,1-1.73-1.1,4,4,0,0,1-1-1.45,4.86,4.86,0,0,1-.35-1.91,5.31,5.31,0,0,1,.65-2.6,6.44,6.44,0,0,1,1.79-2,8.55,8.55,0,0,1,2.69-1.32,11.7,11.7,0,0,1,3.38-.47,10.05,10.05,0,0,1,4.13.83,6.55,6.55,0,0,1,2.91,2.55l-3.71,2.2a4.51,4.51,0,0,0-1.38-1.37,4.3,4.3,0,0,0-2.32-.55,5.87,5.87,0,0,0-1.24.13,4.1,4.1,0,0,0-1.12.38,2.35,2.35,0,0,0-.79.71,1.87,1.87,0,0,0-.31,1.1,1.5,1.5,0,0,0,.79,1.39,12.19,12.19,0,0,0,2.34.89,11,11,0,0,1,4.24,2.1,4.74,4.74,0,0,1,1.5,3.76,5.8,5.8,0,0,1-.69,2.87,6.53,6.53,0,0,1-1.85,2.1,8.27,8.27,0,0,1-2.69,1.28,12.06,12.06,0,0,1-3.23.43,10.21,10.21,0,0,1-5.11-1.12,8.19,8.19,0,0,1-3-2.79Z"/><path class="cls-1" d="M297.37,44.25,278.66,162.4h58.09L356.38,38.48Q326.16,40.5,297.37,44.25Z"/><path class="cls-1" d="M143.29,79.85,130.21,162.4h57.46l7-43.76,26.88-.4c32.95-.47,57.49-22.82,61.61-55.62a85.06,85.06,0,0,0,.57-16.48c-19.25,2.8-37.93,6.15-55.91,10a14,14,0,0,1,0,5c-2.05,12.93-9.61,18.24-21.34,18.24h-5.68l2.79-17.6C182.31,67.09,162.16,73.14,143.29,79.85Z"/><path class="cls-1" d="M69.43,164.94c9.9,0,30-2.09,40.62-6.11l9.07-57c-9.68,7.32-20.43,12.42-32.21,12.42A28.76,28.76,0,0,1,73.31,111c-20.25,11.29-37.7,23.58-51.92,36.67C33.48,158.52,50,164.94,69.43,164.94Z"/><path class="cls-1" d="M60.32,79.94C64.2,63.72,80,50.85,96.52,50.85c11.76,0,19.76,2.71,29.09,9.72l8.68-54.94A114.89,114.89,0,0,0,97.89,0C51,0,8.44,37.31,1.06,84a82.24,82.24,0,0,0-.81,19.49C19,95,39.09,87.18,60.32,79.94Z"/><path class="cls-1" d="M358.23,26.8l3.84-24.26H304L299.47,31Q328.35,28.27,358.23,26.8Z"/><path class="cls-1" d="M281.26,32.84c-6.82-21.15-26.5-30.3-53.47-30.3H155.53l-8.36,52.78A1141.47,1141.47,0,0,1,281.26,32.84Z"/></g></g></svg>