<svg width="150px" data-animation-element="invert-color" xmlns="http://www.w3.org/2000/svg" viewBox="0 0 283.46 63.35" class="fill-white mt-1 xs:mt-0 w-24 xs:w-32 sm:w-[150px] mr-4 2xl:mr-16 will-change-transform hover:scale-105">
  <path class="cls-1" d="m145.24,16.22l-10.83,27.07-10.83-27.07c-.28-.7-.96-1.16-1.71-1.16h-6.86c-.6,0-1.02.61-.79,1.17l14.12,35.3c.28.7.96,1.16,1.71,1.16h8.73c.75,0,1.43-.46,1.71-1.16l14.12-35.3c.22-.56-.19-1.17-.79-1.17h-6.86c-.75,0-1.43.46-1.71,1.16"/>
  <path class="cls-1" d="m182.43,38.85c0,8.12-5.87,14.7-14.63,14.7s-14.63-6.58-14.63-14.7,5.87-14.7,14.63-14.7,14.63,6.58,14.63,14.7m-21.41,0c0,5.11,3.48,7.39,6.78,7.39s6.78-2.29,6.78-7.39-3.47-7.39-6.78-7.39-6.78,2.29-6.78,7.39"/>
  <path class="cls-1" d="m203.18,46.24c-3.33,0-6.99-2.29-6.99-7.39s3.66-7.39,6.99-7.39,6.7,2.29,6.7,7.39-3.36,7.39-6.7,7.39m.13-22.09c-3.5,0-6.37,1.35-8.51,3.47l-.34-1.43c-.17-.69-.78-1.18-1.49-1.18h-3.7c-.66,0-1.19.53-1.19,1.19v35.96c0,.66.53,1.19,1.19,1.19h5.85c.66,0,1.19-.53,1.19-1.19v-10.89c1.86,1.42,4.18,2.28,7,2.28,8.76,0,14.49-6.58,14.49-14.7s-5.73-14.7-14.49-14.7"/>
  <path class="cls-1" d="m283.31,51.51l-10.51-13.71,8.79-11.61c.37-.49.02-1.19-.59-1.19h-6.46c-.71,0-1.38.33-1.81.9l-7.72,10.19v-19.84c0-.66-.53-1.19-1.19-1.19h-5.85c-.66,0-1.19.53-1.19,1.19v35.25c0,.66.53,1.19,1.19,1.19h5.85c.66,0,1.19-.53,1.19-1.19v-11.66l9.17,11.96c.43.56,1.1.89,1.8.89h6.74c.61,0,.96-.7.59-1.19"/>
  <path class="cls-1" d="m241.13,41.47c0,4.38-3.89,6.38-6.68,6.38-2.55,0-3.79-1.53-3.79-3.17,0-2.14,1.6-3.04,3.61-3.33l6.86-.96v1.07Zm-5.07-17.32c-7.07,0-11.34,3.96-12.47,8.03-.19.67.35,1.33,1.05,1.33h5.51c.65,0,1.24-.38,1.5-.97.63-1.5,2.35-2.29,4.62-2.29,3.32,0,4.87,1.57,4.87,3.55v1.52l-9.65,1.25c-4.86.68-9.14,3.61-9.14,8.58,0,4.34,4.08,8.41,10.3,8.41,3.86,0,6.91-1.58,8.49-3.49l.35,1.46c.17.69.78,1.17,1.49,1.17h5.2c.66,0,1.19-.53,1.19-1.19v-16.86c-.42-5.59-4.06-10.49-13.3-10.49"/>
  <path class="cls-1" d="m153.82,15.06h-6.86c-.75,0-1.43.46-1.71,1.16l-10.83,27.07-10.83-27.07c-.28-.7-.96-1.16-1.71-1.16h-6.86c-.6,0-1.02.61-.79,1.17l14.12,35.31c.28.7.96,1.16,1.71,1.16h8.73c.75,0,1.43-.46,1.71-1.16l14.12-35.31c.22-.56-.19-1.17-.79-1.17"/>
  <path class="cls-1" d="m167.81,24.15c-8.76,0-14.63,6.58-14.63,14.7s5.87,14.7,14.63,14.7,14.63-6.58,14.63-14.7-5.87-14.7-14.63-14.7m0,22.09c-3.3,0-6.78-2.29-6.78-7.39s3.48-7.39,6.78-7.39,6.78,2.28,6.78,7.39-3.48,7.39-6.78,7.39"/>
  <path class="cls-1" d="m203.3,24.15c-3.51,0-6.37,1.35-8.51,3.47l-.34-1.43c-.16-.69-.78-1.18-1.49-1.18h-3.7c-.66,0-1.19.54-1.19,1.2v35.96c0,.66.53,1.19,1.19,1.19h5.85c.66,0,1.19-.54,1.19-1.19v-10.89c1.86,1.42,4.18,2.29,7,2.29,8.76,0,14.49-6.58,14.49-14.7s-5.73-14.7-14.49-14.7m-.13,22.09c-3.34,0-6.99-2.29-6.99-7.39s3.65-7.39,6.99-7.39,6.7,2.28,6.7,7.39-3.36,7.39-6.7,7.39"/>
  <path class="cls-1" d="m263.82,15.06h-5.85c-.66,0-1.19.53-1.19,1.19v35.25c0,.66.53,1.19,1.19,1.19h5.85c.66,0,1.19-.53,1.19-1.19v-11.66l9.17,11.96c.43.56,1.1.89,1.8.89h6.74c.61,0,.96-.7.59-1.19l-10.51-13.71,8.79-11.61c.37-.49.02-1.18-.59-1.18h-6.46c-.71,0-1.38.33-1.81.9l-7.72,10.19v-19.84c0-.66-.53-1.19-1.19-1.19"/>
  <path class="cls-1" d="m236.06,24.15c-7.07,0-11.34,3.96-12.47,8.03-.19.67.35,1.33,1.05,1.33h5.51c.65,0,1.25-.38,1.5-.97.63-1.5,2.35-2.29,4.61-2.29,3.32,0,4.87,1.57,4.87,3.55v1.52l-9.65,1.25c-4.86.68-9.13,3.61-9.13,8.58,0,4.34,4.07,8.41,10.3,8.41,3.86,0,6.92-1.58,8.49-3.49l.35,1.46c.17.69.78,1.17,1.49,1.17h5.2c.66,0,1.19-.53,1.19-1.19v-16.86c-.43-5.59-4.06-10.49-13.3-10.49m-1.61,23.7c-2.55,0-3.79-1.53-3.79-3.17,0-2.14,1.6-3.04,3.61-3.33l6.85-.96v1.07c0,4.38-3.89,6.38-6.68,6.38"/>
  <path class="cls-1" d="m77.8,0l-4.92,12.29h-35.41l-10.14,25.35H0L15.06,0h62.74Zm-30.38,33.88l2.1-3.14h29.68l.17,3.14h15.18l7.53-18.82h-23.76l.71,12.55h-27.41l8.39-12.55h-20.67l-7.53,18.82h15.61Zm-17.11,3.76l-6.02,15.06h62.74l6.03-15.06H30.31Z"/>
</svg>